<svg width="972" height="514" viewBox="0 0 972 514" fill="none" xmlns="http://www.w3.org/2000/svg">
<path d="M2.42555 362.249C-8.45854 297.785 19.1218 219.488 48.468 166.094C97.2364 77.4629 174.572 21.863 277.135 7.24976C470.079 -20.2474 662.439 33.4933 833.788 117.455C862.623 131.593 894.398 147.33 920.805 165.402C945.807 182.48 995.938 221.953 958.286 252.087C920.634 282.222 865.69 261.685 822.416 254.206C746.601 241.106 674.748 236.912 597.826 239.939C482.315 244.478 394.106 270.678 318.93 362.552C286.858 401.766 238.814 490.051 192.559 507.171C148.475 523.471 90.3791 509.333 56.2625 478.118C30.1959 454.252 4.93851 397.442 2.42555 362.206V362.249Z" fill="#EF4293"/>
</svg>
