<svg width="132" height="128" viewBox="0 0 132 128" fill="none" xmlns="http://www.w3.org/2000/svg">
<path d="M66 127C101.899 127 131 98.7944 131 64.0005C131 29.2065 101.899 1.00049 66 1.00049C30.1015 1.00049 1 29.2065 1 64.0005C1 98.7944 30.1015 127 66 127Z" fill="white" stroke="black" stroke-width="0.121074" stroke-miterlimit="10"/>
<path d="M71.8897 39.3052C71.83 39.2517 72.3818 38.5484 72.4252 38.406C72.6622 37.6238 71.9249 36.6058 71.5731 35.6694C71.479 35.4199 71.8128 35.2375 71.9765 35.4471C72.7119 36.3871 73.4175 37.7218 72.8594 38.6773C72.7472 38.8696 72.1031 39.4948 71.8888 39.3052H71.8897Z" fill="black"/>
<path d="M75.013 41.6139C75.2491 41.5976 75.3585 41.9034 75.1641 42.0395C74.5734 42.455 73.4544 42.3707 73.2934 43.1446C73.2699 43.2571 73.2617 43.3769 73.2563 43.4985C73.2446 43.7625 72.8773 43.8061 72.7995 43.5539C72.4196 42.328 73.7466 41.701 75.0121 41.6139H75.013Z" fill="black"/>
<path d="M80.7103 58.3048C81.2477 58.2576 81.4738 59.7493 81.1889 59.7629C80.9455 59.7747 79.9559 58.3701 80.7103 58.3048Z" fill="black"/>
<path d="M81.6012 55.8905C81.4149 56.0565 81.13 55.8451 81.2358 55.6183C81.3796 55.3098 81.6429 55.0375 81.8826 55.2018C82.0906 55.3433 81.86 55.66 81.6012 55.8905Z" fill="black"/>
<path d="M81.8763 69.8881C81.7894 69.7302 81.5642 69.723 81.4719 69.8772C81.4665 69.8854 81.462 69.8926 81.4583 69.899C80.9626 70.6875 79.452 71.8398 78.6786 72.4514C75.2756 75.1426 71.1109 78.146 67.4908 80.5378C66.9508 80.8953 66.4198 81.2809 65.783 81.4152C65.6473 81.4443 65.5577 81.5804 65.6002 81.7129C65.8843 82.5939 64.5772 81.4452 64.2687 81.1693C61.8119 78.9781 59.1163 75.7161 56.3492 74.0774C56.171 73.9721 54.5617 73.3152 55.3831 73.1573C55.46 73.1428 55.5296 73.1383 55.5957 73.1419C55.8118 73.1537 55.9195 72.8869 55.7612 72.7381C55.0231 72.0422 54.37 71.2392 53.753 70.4371C53.0818 69.5651 52.4649 68.684 52.0325 67.6759C51.9575 67.5008 51.715 67.4836 51.6191 67.6478C49.8236 70.7283 48.8168 73.9222 48.3111 77.4836C48.0054 79.6386 47.6227 84.8723 48.6711 86.7079C49.0375 87.3494 49.6653 87.7423 50.0624 88.2704C50.6314 89.028 48.8738 88.5362 48.5816 88.4409C46.0868 87.6288 44.5029 85.3414 43.4508 83.0712C41.9302 79.7901 39.5087 73.7725 40.3418 70.2284C40.7905 68.3211 42.34 66.9056 42.7706 64.9412C43.4924 61.6429 40.985 58.3428 40.7633 55.0391C40.5481 51.8171 41.8823 47.4517 43.5956 44.7351C45.3043 42.0248 49.3993 38.7202 52.7616 38.9779C52.9263 38.9906 53.3433 39.153 53.3686 39.1349C53.384 39.124 53.4039 38.9951 53.4581 38.9389C54.1393 38.2239 55.7051 37.4898 56.6947 37.4907C57.9059 37.4916 59.2592 38.4879 60.4415 38.8345C63.1905 39.6403 65.1597 38.2638 67.7287 38.7556C69.0702 39.0124 71.6184 40.1212 70.2371 41.798C69.9142 42.327 66.8033 44.7469 66.7626 45.0119C66.6767 45.5808 67.7965 47.5869 68.0426 48.2992C69.6066 52.8369 65.8508 52.5003 62.7147 51.7545C61.8834 51.5567 60.4369 50.8807 59.725 50.8852C58.6848 50.8916 59.0005 51.9532 59.2357 52.6155C59.621 53.6998 60.4677 54.9375 61.1995 55.8222C61.4881 56.1706 62.6097 57.4518 62.9164 57.6324C63.0258 57.6968 63.1072 57.7421 63.2402 57.7104C65.0964 57.0235 66.7192 56.7404 68.5609 57.6396C70.181 58.4308 71.3343 59.8672 71.8653 61.5676C71.9323 61.7817 72.2353 61.7817 72.3077 61.5694L72.8531 59.9706C72.8567 59.9607 72.8604 59.9507 72.8649 59.9416C73.8129 58.0153 74.9291 56.1543 76.1639 54.3985C77.4791 52.5275 80.2118 48.7447 82.8053 49.1857C83.8175 49.3581 84.5049 50.5722 84.2037 51.5358C83.8989 52.5121 83.718 51.093 83.6257 50.828C83.2367 49.7111 82.1531 49.7828 81.2286 50.1947C78.6496 51.3462 74.7184 57.4536 73.5388 60.065C73.2113 60.79 72.8875 62.0793 72.4207 62.6446C72.3773 62.6963 72.2462 62.7063 72.2244 62.7354C72.1638 62.8179 72.598 64.3704 72.6252 64.737C72.7373 66.2614 72.6197 68.5216 71.679 69.7837C71.5451 69.9643 71.1335 70.2656 71.0865 70.4225C71.0078 70.6893 71.0856 71.2337 71.0693 71.5549C71.0295 72.3307 70.9246 72.9232 71.2186 73.7072C71.3262 73.9948 71.688 74.473 72.0119 74.473H73.4863C73.6962 74.473 73.7541 74.63 73.5686 74.8024C73.0349 75.2969 72.0028 75.3268 71.4031 74.9194C70.2896 74.1645 70.4252 72.4723 70.5989 71.2056C70.6252 71.015 70.4225 70.878 70.2552 70.9706C70.0933 71.0604 69.9313 71.1502 69.7305 71.1983C67.6238 71.6983 67.0458 69.4036 67.1389 67.7776C67.2846 65.2433 68.9074 59.7946 65.4817 58.6749C65.1263 58.5588 64.797 58.4662 64.4361 58.6168L65.641 58.958C65.7061 58.9762 65.7622 59.0224 65.7902 59.0841C66.2814 60.1439 66.2805 61.2518 65.8155 62.3416C65.6301 62.7771 65.2999 63.1328 65.1326 63.5465C64.7626 64.4584 64.5636 65.5863 64.351 66.5853C64.313 66.7631 64.484 66.9147 64.655 66.8539C64.7825 66.8085 64.911 66.7622 65.0485 66.7486C66.7364 66.5853 66.7491 68.5343 66.6242 69.7257C66.4533 71.3544 65.5541 72.6955 65.6645 74.4304C65.7224 75.3386 66.076 75.7987 65.4537 76.6861C65.1651 77.0971 64.0172 78.0353 63.5541 78.2313C63.2384 78.3647 62.6007 78.5335 62.9978 78.0026C63.4817 77.3575 64.8259 76.5944 64.9897 75.8105C65.1136 75.2161 64.8359 74.5166 64.8377 73.9395C64.844 72.191 66.5184 69.4562 65.8879 67.881C65.5496 67.0354 64.6477 67.44 64.3085 68.0598C63.65 69.2611 63.2728 72.2881 62.266 73.1591C62.0878 73.3134 61.7269 73.4323 61.7305 73.1192C61.7314 73.0267 62.4216 71.7409 62.5319 71.4551C62.7744 70.8318 62.9598 70.1812 63.1262 69.5306C63.1805 69.3183 62.9399 69.1549 62.7635 69.2847C61.8435 69.9616 60.5156 70.9098 60.4207 71.8026C60.3863 72.1266 60.3926 72.7055 60.4225 73.0339C60.5156 74.0683 61.5043 75.5918 60.5681 76.3394C60.4586 76.4275 60.4514 76.5926 60.5536 76.6888L65.2366 81.1566C65.318 81.2338 65.4428 81.2428 65.5333 81.1766L81.4611 69.5878C81.5606 69.5152 81.5868 69.3773 81.5208 69.2729C81.1463 68.6849 80.3195 67.4645 80.7935 67.0735C81.1399 66.7876 81.5805 66.9945 81.9387 67.1442C82.0906 67.2068 82.4859 67.5598 82.5791 67.4074C82.6723 67.2549 82.8233 66.2904 82.855 66.04C83.0432 64.551 82.9364 63.1355 83.4158 61.6719C83.6121 61.0731 84.3439 59.4072 84.6813 58.9154C85.2467 58.0924 86.2906 58.135 86.7311 59.0506C87.1581 59.938 87.1753 61.0703 87.0314 62.0621C87.0061 62.2354 87.1698 62.3706 87.3363 62.3171C87.4159 62.2908 87.5 62.2844 87.5805 62.3234C87.6085 62.337 87.633 62.3597 87.6511 62.386C88.0056 62.9041 86.8252 63.9585 86.2155 64.2398C86.0373 64.3223 85.8437 64.1663 85.888 63.9739C85.936 63.7661 86.0753 63.5919 86.1187 63.3986C86.2951 62.6138 86.3657 61.6039 86.2951 60.8027C86.2562 60.3581 86.0156 58.5642 85.244 59.2348C85.1409 59.3246 84.3801 61.182 84.277 61.4687C83.9523 62.3724 83.727 63.2889 83.6031 64.2443C83.4602 65.3486 83.5289 66.9455 83.1273 67.9572C83.0495 68.1532 82.5158 69.0415 82.3819 68.586C82.3114 68.3447 82.4905 68.1333 82.2996 68.0371C82.1087 67.9409 81.9034 68.1759 82.0101 68.3683C82.6976 69.605 83.4936 70.8227 83.8455 72.2001C83.8889 72.3688 84.0925 72.4333 84.2227 72.3171C84.9708 71.6493 86.5267 70.3363 87.0622 70.3799C87.4294 70.4098 87.481 70.7773 87.6411 70.7655C87.945 70.7428 89.7325 69.3401 90.0238 69.0406C90.2336 68.8247 91.2983 67.4763 91.1328 67.2477C91.0839 67.1805 90.6226 67.1896 90.6452 66.7967C90.6723 66.3385 91.3689 66.2087 91.453 65.7841C91.5453 65.3213 91.0468 65.3722 90.8858 65.1526C90.5955 64.7588 91.1273 64.3759 91.2594 64.0356C91.4765 63.4785 91.424 63.0357 91.0541 62.6555C90.9509 62.5494 90.7791 62.5602 90.6931 62.6809C90.5963 62.8179 90.4652 62.984 90.3223 63.0448C90.1993 63.0965 90.0563 63.0221 90.0183 62.8942C89.8546 62.3398 90.4091 61.847 90.6027 61.3244C90.8949 60.5368 90.8189 59.7238 90.3892 58.9934C90.3232 58.8809 90.2951 58.8201 90.1938 58.9426C90.0572 59.1077 89.9324 59.6349 89.8139 59.8763C89.6583 60.1911 89.5163 60.4751 89.2938 60.7519C88.6967 61.4959 87.3372 62.5757 88.3087 60.7491C88.5864 60.2274 89.671 58.6831 89.7397 58.2403C90.4769 53.5129 91.4249 45.637 86.9853 42.3596C85.6049 41.3407 84.6696 41.523 83.1074 41.8923C77.3633 43.2516 72.5799 49.3472 69.5587 54.1018C69.2963 54.5147 67.8626 57.0789 67.6509 57.127C67.5505 57.1496 67.451 57.0589 67.3379 57.0253C67.2059 56.9872 67.1245 56.8557 67.1679 56.725C67.3741 56.1116 68.1141 54.8849 68.2678 54.6145C71.3533 49.1975 76.5411 42.8115 82.7175 40.9269C86.2336 39.8544 88.8026 41.6855 90.2481 44.8367C92.0663 48.7992 91.766 52.141 91.1111 56.3303C91.0378 56.8003 90.7013 57.8655 90.7284 58.2403C90.742 58.4317 91.1545 58.997 91.2567 59.272C91.6068 60.2056 91.5082 61.0413 91.1518 61.916C91.1047 62.0322 91.1581 62.1692 91.2748 62.2154C92.0192 62.5122 92.1495 63.2752 92.0165 64.0583C91.9804 64.2715 91.7008 64.7043 91.7207 64.806C91.7497 64.9566 92.2164 65.2206 92.1947 65.7142C92.1739 66.1788 91.6511 66.618 91.6339 66.7187C91.6231 66.7858 91.7714 66.9464 91.794 67.1134C92.0093 68.6849 89.6357 70.5405 88.4046 71.1992C88.182 71.3181 87.2558 71.6693 87.2033 71.7192C87.1146 71.8045 86.7221 72.8261 86.59 73.0766C84.0834 77.8366 79.1716 83.3125 73.869 84.8006C73.4049 84.9313 72.3755 85.0429 72.0535 85.198C71.3877 85.5174 69.9133 87.0899 69.091 87.6497C67.6545 88.6288 66.465 88.8765 64.7762 89.155C64.5871 89.1859 63.7359 89.2258 63.6979 89.2648C63.6844 89.2784 63.6997 89.4826 63.6509 89.5851C63.3976 90.1223 62.6957 89.6069 62.3374 89.4436C62.3311 89.4409 62.3266 89.4381 62.3203 89.4345L57.8607 86.8258C57.6943 86.7288 57.4853 86.8658 57.5134 87.0572C57.593 87.6062 57.4745 88.0934 57.2384 88.6596C57.0267 89.1668 56.597 89.9472 56.0452 90.2257C55.8715 90.3137 55.6671 90.1649 55.7078 89.9735C55.9258 88.94 56.9507 88.2359 56.8069 87.0899C56.768 86.7841 56.4143 85.9457 56.1999 85.727C56.1167 85.6426 54.9055 84.7534 54.8268 84.7217C54.3455 84.5284 52.6874 84.914 52.4767 84.6554C52.3862 84.5447 52.502 84.2997 52.6567 84.2281C53.0339 84.0529 54.4622 83.9368 54.8702 84.0212C55.1126 84.0711 55.7793 84.5919 56.1493 84.8487C56.2605 84.9258 56.4143 84.895 56.484 84.7788C56.5708 84.6327 56.7164 84.4531 56.863 84.3106C57.0394 84.1382 57.3261 84.3288 57.242 84.5611C57.1624 84.7806 57.0484 85.0175 56.9986 85.1871C56.9688 85.2897 57.0104 85.3995 57.1018 85.4548C59.1416 86.6852 61.2194 87.8711 63.384 88.8701C63.4419 88.8974 63.508 88.8973 63.5677 88.8738C64.5844 88.4654 65.688 88.3139 66.7246 87.9873C68.9906 87.2732 71.6763 84.4903 73.5668 82.9369C75.7098 81.1748 77.9748 79.6477 79.7912 77.5136C80.1006 77.1497 81.6284 75.0129 81.8392 74.9666C82.0174 74.9285 81.9586 75.051 81.9631 75.1726C82.0156 76.5781 79.1218 79.3882 78.0671 80.3037C76.8586 81.3535 75.5397 82.2772 74.2887 83.2808C74.0833 83.445 74.2661 83.7726 74.513 83.6836L74.7156 83.611C74.722 83.6083 74.7283 83.6065 74.7346 83.6038C78.9536 81.711 82.7356 77.9119 85.1065 73.974C85.3887 73.5058 86.0264 72.5358 86.1359 72.0476C86.1856 71.8271 85.9713 71.9995 85.898 72.0558C85.3462 72.4823 84.8541 72.9904 84.2996 73.4132C84.23 73.4667 84.1947 73.5538 84.2101 73.6409C84.3078 74.189 84.1965 74.4839 83.8292 73.7888C83.1327 72.4714 82.5927 71.2047 81.8717 69.889L81.8763 69.8881ZM65.536 59.9715C65.5197 59.859 65.4302 59.771 65.3171 59.7674C64.3583 59.7374 63.2583 59.007 62.4912 58.4689C60.1755 56.842 57.9105 53.7416 58.1285 50.77C58.1655 50.2682 58.1981 49.6966 58.8123 49.7474C59.583 49.8109 61.2275 50.6212 62.1231 50.8689C63.5134 51.2536 65.0756 51.514 66.522 51.3843C67.0973 51.3325 67.5424 51.1901 67.6744 50.5685C67.9377 49.33 66.6523 47.1088 66.2959 45.8629C66.1529 45.3621 66.0182 44.8803 66.3999 44.442C66.8386 43.9366 67.8228 43.3087 68.3682 42.8015C68.7617 42.4349 69.859 41.4151 69.9712 40.9514C70.0598 40.5866 69.3787 40.1847 69.0783 40.0322C66.1249 38.5387 64.2389 40.1448 61.3044 39.6956C59.6852 39.4479 57.5179 38.046 56.076 38.2765C55.45 38.3763 54.7824 38.7529 54.2388 39.1231C54.1302 39.1975 54.1058 39.3436 54.1818 39.4506C54.5373 39.9542 54.6893 40.6447 54.7689 41.239C55.0692 43.4802 54.6703 46.4464 53.2799 48.2892C53.0864 48.546 52.9217 48.9353 52.5328 48.8418C52.4749 48.8282 52.0181 48.0188 51.8634 47.851C50.8729 46.7803 48.6901 45.8049 48.0958 47.773C47.6408 49.2828 48.4486 51.1574 49.2962 52.3978C50.0633 53.5193 51.6056 55.1235 53.0945 54.5945C53.4771 54.4584 54.5617 53.7733 54.8738 53.865C55.1171 53.9358 55.5739 54.8123 55.6472 55.0654C55.8399 55.7369 55.7938 56.3666 55.3044 56.8938C55.1687 57.0408 54.8304 57.175 54.7815 57.3611C54.7463 57.4953 54.9516 58.361 54.9317 58.7384C54.8132 61.0077 53.763 63.8487 52.6531 65.8195C52.5282 66.0409 52.2505 66.2922 52.1845 66.4238C52.1212 66.5499 52.6739 67.5825 52.7888 67.7912C53.2546 68.6332 53.8553 69.3918 54.4387 70.1521C54.4414 70.1558 54.445 70.1594 54.4478 70.163L56.2044 72.1756C56.3265 72.3153 56.5554 72.2636 56.6043 72.0848C56.9996 70.6312 57.2827 69.184 57.8933 67.7885C58.1637 67.1705 58.9525 65.5101 59.3198 65.0292C59.5396 64.7415 59.7875 64.6962 60.1131 64.5918C61.2646 64.2243 63.7043 63.9367 64.5184 63.1772C65.3117 62.4368 65.6916 61.0586 65.536 59.9724V59.9715ZM66.6052 57.6287C66.1276 57.5779 65.5767 57.6659 65.0901 57.6287C65.0711 57.7449 65.2348 57.7494 65.3171 57.7694C66.2452 57.9953 67.0675 58.3047 67.6645 59.1132C68.4225 60.1403 68.5917 62.5711 68.5338 63.8351C68.4605 65.4202 67.4248 68.498 68.247 69.7847C69.015 70.986 70.6387 70.0614 71.2195 69.1586C72.6948 66.8666 71.9467 62.0358 70.3999 59.9017C69.5976 58.7947 67.9784 57.7748 66.6052 57.6278V57.6287ZM63.4392 64.5065C62.294 64.8758 61.1307 65.1698 59.9702 65.491C59.9168 65.5055 59.8689 65.5391 59.8381 65.5854C58.3736 67.734 57.7223 70.2574 56.9616 72.7145C56.9344 72.8026 56.9634 72.896 57.0303 72.9586C57.5287 73.4223 57.8281 74.0602 58.2506 74.5556C58.6576 75.0329 59.2402 75.4112 59.6825 75.8821C59.7784 75.9847 59.9448 75.9765 60.0308 75.8658C60.1104 75.7642 60.1791 75.6444 60.1954 75.599C60.559 74.5737 59.1723 72.3788 59.7278 70.9397C60.0425 70.1249 61.6066 69.0134 62.4152 68.7058C62.6197 68.6278 63.432 68.4899 63.4528 68.4318C63.5586 68.1351 63.1841 68.2303 63.0837 68.0643C62.8938 67.7494 63.4519 65.7614 63.7359 64.7924C63.7884 64.6118 63.6183 64.4485 63.4401 64.5065H63.4392Z" fill="black"/>
<path d="M60.4779 42.2214C60.6064 42.2876 60.761 42.2205 60.8072 42.0826C60.9989 41.5118 61.4793 41.7015 61.5589 42.4782C61.6358 43.2349 61.1826 43.8955 60.4933 43.9436C60.297 43.9572 60.1758 43.7294 60.2943 43.5706C60.4218 43.3982 60.5756 43.1904 60.6453 43.0171C60.695 42.8937 60.6335 42.754 60.5087 42.7086L59.3011 42.2713C59.036 42.1751 59.1364 41.784 59.4159 41.8203C59.5082 41.8321 59.6041 41.8512 59.7036 41.8757C60.0003 41.9483 60.2301 42.0925 60.4788 42.2214H60.4779Z" fill="black"/>
<path d="M56.4929 41.3639C56.4467 41.4084 56.4693 42.313 56.245 42.0989C56.0171 41.8811 55.9176 40.4856 56.5182 40.6162C56.6195 40.638 56.6032 40.9302 56.8167 40.8667C56.8683 40.7269 56.5797 40.5591 56.6539 40.4574C56.7805 40.2814 57.2147 40.4211 57.2925 40.6797C57.5395 41.5027 56.5435 41.3167 56.4938 41.3639H56.4929Z" fill="black"/>
<path d="M7.44142 60.0008V58.6507C7.72998 59.1488 8.29986 59.5916 8.85617 59.5916C9.1583 59.5916 9.42606 59.4283 9.42606 59.1207C9.42606 58.7868 9.05337 58.6498 8.53234 58.3775C7.85662 58.03 7.39258 57.5936 7.39258 56.9176C7.39258 56.0583 8.12438 55.4722 9.05338 55.4722C9.66577 55.4722 10.1579 55.7317 10.3623 55.9494L10.4401 57.1907C10.0176 56.7606 9.52557 56.4812 9.06785 56.4812C8.75125 56.4812 8.53325 56.6381 8.53325 56.8904C8.53325 57.1971 8.8218 57.3205 9.41972 57.6135C10.1235 57.9683 10.5875 58.3775 10.5875 59.0798C10.5875 59.9328 9.88377 60.6078 8.87788 60.6078C8.2872 60.6078 7.6956 60.3483 7.44232 60.0008H7.44142Z" fill="black"/>
<path d="M11.2861 55.5683H12.4539V59.4827H14.1282V60.5189H11.2852V55.5674L11.2861 55.5683Z" fill="black"/>
<path d="M14.2754 58.0417C14.2754 56.5273 15.218 55.4702 16.5766 55.4702C17.9353 55.4702 18.8779 56.5273 18.8779 58.0417C18.8779 59.5561 17.9416 60.6059 16.5766 60.6059C15.2116 60.6059 14.2754 59.5552 14.2754 58.0417ZM17.6594 58.0417C17.6594 57.1479 17.265 56.5346 16.5757 56.5346C15.8864 56.5346 15.4921 57.1479 15.4921 58.0417C15.4921 58.9354 15.8928 59.5488 16.5757 59.5488C17.2587 59.5488 17.6594 58.9354 17.6594 58.0417Z" fill="black"/>
<path d="M19.1367 55.5674H20.2837L20.8536 59.0253L21.6912 55.5674H22.4583L23.2887 59.0453L23.8658 55.5674H24.9984L24.0133 60.5189H22.7469L22.0576 57.7568L21.3683 60.5189H20.1091L19.1376 55.5674H19.1367Z" fill="black"/>
<path d="M106.051 55.5674H108.837V56.5836H107.211V57.6815H108.52V58.6633H107.211V60.5189H106.05V55.5674H106.051Z" fill="black"/>
<path d="M109.088 58.0417C109.088 56.5273 110.03 55.4702 111.389 55.4702C112.748 55.4702 113.69 56.5273 113.69 58.0417C113.69 59.5561 112.754 60.6059 111.389 60.6059C110.024 60.6059 109.088 59.5552 109.088 58.0417ZM112.473 58.0417C112.473 57.1479 112.078 56.5346 111.389 56.5346C110.7 56.5346 110.305 57.1479 110.305 58.0417C110.305 58.9354 110.706 59.5488 111.389 59.5488C112.072 59.5488 112.473 58.9354 112.473 58.0417Z" fill="black"/>
<path d="M114.143 58.0417C114.143 56.5273 115.085 55.4702 116.444 55.4702C117.802 55.4702 118.745 56.5273 118.745 58.0417C118.745 59.5561 117.809 60.6059 116.444 60.6059C115.079 60.6059 114.143 59.5552 114.143 58.0417ZM117.527 58.0417C117.527 57.1479 117.132 56.5346 116.443 56.5346C115.754 56.5346 115.359 57.1479 115.359 58.0417C115.359 58.9354 115.76 59.5488 116.443 59.5488C117.126 59.5488 117.527 58.9354 117.527 58.0417Z" fill="black"/>
<path d="M119.382 55.5674H121.015C122.344 55.5674 123.294 56.4947 123.294 58.0091C123.294 59.5235 122.33 60.5189 121.043 60.5189H119.382V55.5674ZM122.077 58.0291C122.077 57.0473 121.634 56.57 120.902 56.57H120.537V59.5235H120.902C121.641 59.5235 122.077 58.9918 122.077 58.03V58.0291Z" fill="black"/>
<path d="M52.0174 12.3655C51.879 12.4553 51.7424 12.546 51.6058 12.6377C51.1399 12.4317 50.4696 12.2947 47.6881 13.2275C47.5135 13.2873 47.3398 13.349 47.1661 13.4107C48.4416 15.6928 49.717 17.9748 50.9925 20.2577C52.1938 22.39 53.0341 23.3427 53.5615 23.1667C53.632 23.3028 53.7026 23.438 53.7732 23.5741C50.8342 24.5513 47.9857 25.8879 45.2928 27.5837C45.1734 27.4712 45.0549 27.3578 44.9355 27.2453C45.4185 26.9413 44.7627 25.9015 42.94 24.0623C40.9852 22.1015 39.0295 20.1407 37.0747 18.1798C36.9128 18.2769 36.7518 18.3749 36.5908 18.4738C33.8237 20.2123 33.7196 20.7087 33.7748 21.0898C33.5912 21.1515 33.4085 21.2141 33.2239 21.2776C31.9838 20.1688 30.7535 19.0527 29.5342 17.9294C35.8427 13.3853 42.7835 10.1524 49.9911 8.23242C50.6777 9.60708 51.3534 10.9854 52.0165 12.3673L52.0174 12.3655Z" fill="black"/>
<path d="M66.6696 6.56803C65.7931 6.56077 65.3942 7.71857 65.4439 10.0577C65.4503 10.418 65.4566 10.7791 65.4629 11.1393C66.4724 11.1275 67.4829 11.1439 68.4915 11.1874C68.515 10.8272 68.5394 10.467 68.5629 10.1067C68.7257 7.77119 68.3829 6.60161 67.5073 6.58074C67.5127 6.43374 67.5172 6.28675 67.5227 6.13975C72.4236 6.25136 77.3138 6.93733 82.0881 8.19947C82.0311 8.3392 81.9741 8.47893 81.9162 8.61867C81.0623 8.39455 80.241 9.399 79.4124 11.6402C78.5069 14.0638 77.6014 16.4882 76.6968 18.9118C75.8674 21.1548 75.7208 22.3153 76.2563 22.4559C76.1993 22.5957 76.1423 22.7354 76.0845 22.8751C73.103 22.0866 70.0482 21.6584 66.9881 21.5885C66.9935 21.4415 66.998 21.2945 67.0034 21.1475C67.5525 21.1602 67.8972 20.0288 68.06 17.6914C68.0934 17.1842 68.1269 16.677 68.1604 16.1697C67.2902 16.1316 66.42 16.118 65.5498 16.128C65.5588 16.6361 65.5679 17.1433 65.5769 17.6515C65.6267 19.9925 65.9161 21.1339 66.4652 21.1385C66.4634 21.2855 66.4607 21.4324 66.4589 21.5803C63.3978 21.5522 60.334 21.8834 57.3335 22.5739C57.2838 22.4324 57.2331 22.2908 57.1834 22.1493C57.7216 22.0259 57.6311 20.8626 56.9138 18.5942C56.1286 16.1434 55.3444 13.6926 54.5592 11.2409C53.8419 8.97436 53.073 7.9445 52.2136 8.14049C52.1639 7.99894 52.1132 7.8574 52.0635 7.71585C56.8677 6.61068 61.7732 6.07987 66.6751 6.12524C66.6733 6.27223 66.6706 6.41922 66.6687 6.56712L66.6696 6.56803Z" fill="black"/>
<path d="M98.8835 20.6425C98.6827 20.5681 98.4819 20.4955 98.2811 20.4247C98.2513 20.0101 98.0875 19.3686 94.2331 17.112C94.0676 17.0185 93.9021 16.925 93.7356 16.8334C93.135 17.4949 92.5344 18.1572 91.9337 18.8187C92.1508 18.9394 92.3679 19.061 92.5841 19.1844C95.5999 20.9583 95.9491 21.1933 96.4502 20.9202C96.6013 21.0227 96.7524 21.1252 96.9025 21.2296C95.7456 22.2077 94.5886 23.1867 93.4317 24.1649C93.2978 24.0723 93.1639 23.9807 93.03 23.8899C93.296 23.5188 93.1187 23.1768 90.3534 21.5499C90.1553 21.4364 89.9572 21.3248 89.7573 21.215C89.0481 21.9963 88.3398 22.7775 87.6306 23.5588C87.7926 23.6486 87.9536 23.7393 88.1146 23.831C90.613 25.2755 91.9057 25.9143 92.471 25.8526C92.5506 25.9787 92.6293 26.1048 92.7071 26.2319C91.3159 27.0403 89.9509 27.8706 88.6103 28.7198C85.0481 26.2083 81.1729 24.3591 77.1484 23.1722C77.2118 23.0343 77.2751 22.8964 77.3384 22.7576C77.8694 22.9145 78.6573 21.9337 79.7428 19.7624C80.9079 17.4114 82.0738 15.0604 83.2389 12.7094C84.3235 10.5399 84.4502 9.34039 83.6017 9.08905C83.665 8.95113 83.7283 8.81321 83.7916 8.67529C90.2358 10.5753 96.4421 13.536 102.145 17.5584C101.067 18.5928 99.9799 19.6208 98.8835 20.6425Z" fill="black"/>
<path d="M24.3327 90.9083C19.5466 94.1077 13.8803 92.4572 10.6863 83.8454C8.88346 78.746 7.67948 73.1249 7.19824 66.9821C7.37463 66.9757 7.55012 66.9685 7.72651 66.9621C7.81335 68.0437 9.23986 68.4611 12.0296 68.2705C15.0499 68.0727 18.0712 67.8749 21.0916 67.6771C23.884 67.4857 25.2146 67.0411 25.1549 66.2998C25.3313 66.2934 25.5068 66.2861 25.6832 66.2798C26.0125 70.4727 26.8329 74.309 28.0613 77.7906C30.1156 83.4516 29.2943 87.5647 24.3327 90.9083ZM19.884 82.1977C23.3485 80.8584 23.7927 79.9873 23.1929 78.1635C20.3517 79.06 17.5104 79.9574 14.6682 80.8538C15.3964 83.0669 16.4339 83.5242 19.8831 82.1977H19.884Z" fill="black"/>
<path d="M39.4729 94.259C39.358 94.3887 39.2422 94.5185 39.1273 94.6492C38.6823 94.2808 37.5489 95.0874 35.6637 97.1099C34.2336 98.6524 32.8035 100.194 31.3733 101.737C30.0409 103.163 29.7967 104.18 30.931 105.093C32.0717 105.997 33.0567 105.572 34.2671 104.049C35.576 102.41 36.8858 100.771 38.1947 99.1324C39.9107 96.9747 40.5267 95.7543 40.0699 95.4023C40.1812 95.2689 40.2924 95.1355 40.4037 95.003C42.1088 96.3214 43.9171 97.4838 45.8031 98.49C45.7154 98.6388 45.6285 98.7867 45.5408 98.9355C45.0369 98.6661 44.0871 99.6714 42.6389 102.002C41.6773 103.557 40.7158 105.112 39.7551 106.667C36.8017 111.727 31.452 111.923 25.9875 107.242C20.5637 102.452 20.0562 97.0301 25.0015 93.7173C26.5103 92.643 28.0192 91.5678 29.528 90.4934C31.7885 88.8756 32.722 87.8521 32.3756 87.3603C32.5203 87.2623 32.6651 87.1634 32.8098 87.0654C34.7393 89.8102 36.9871 92.2084 39.4729 94.2599V94.259Z" fill="black"/>
<path d="M53.3316 119.474C54.1656 119.63 53.8599 118.215 52.8232 115.237C52.5112 114.32 52.2262 113.401 51.9666 112.481C51.7378 113.277 51.5098 114.072 51.2819 114.868C50.5274 117.474 50.5446 118.856 51.3551 119.047C51.3117 119.212 51.2683 119.377 51.2249 119.541C46.6911 118.483 42.2804 116.919 38.1104 114.846C38.1936 114.696 38.2768 114.545 38.3591 114.394C39.1054 114.763 40.0886 113.739 41.3487 111.314C42.7182 108.692 44.0878 106.07 45.4573 103.448C46.7174 101.021 47.0846 99.7161 46.5735 99.4621C46.6568 99.3114 46.7391 99.1608 46.8223 99.0093C49.6744 100.427 52.6903 101.496 55.7912 102.22C55.7477 102.385 55.7043 102.55 55.6609 102.714C55.1055 102.583 54.4687 103.792 53.7134 106.4C53.5487 106.974 53.3841 107.548 53.2186 108.123C53.9305 107.687 54.6225 107.237 55.2945 106.774C58.3185 104.639 59.1915 103.37 58.6496 103.302C58.6804 103.134 58.7102 102.967 58.741 102.799C60.5917 103.096 62.4624 103.273 64.3376 103.33C64.3322 103.5 64.3258 103.669 64.3204 103.84C63.9233 103.819 62.6261 105.139 59.9187 107.472C61.0576 110.579 62.5203 113.65 64.3041 116.64C65.9342 119.381 67.4294 120.662 67.9613 120.642C67.9685 120.811 67.9758 120.981 67.9821 121.152C63.0368 121.33 58.0698 120.937 53.2213 119.971C53.2583 119.805 53.2963 119.639 53.3334 119.472L53.3316 119.474Z" fill="black"/>
<path d="M82.0681 118.518C82.7031 118.344 82.4336 117.621 81.7009 116.654C79.7642 117.185 77.8003 117.618 75.8184 117.952C75.6592 118.884 75.6927 119.889 76.3973 119.77C76.4299 119.937 76.4625 120.104 76.495 120.272C73.794 120.737 71.0613 121.026 68.3213 121.14C68.3132 120.971 68.305 120.801 68.2969 120.631C68.8324 120.61 69.8799 119.256 70.8288 116.457C72.3819 111.858 73.4113 107.201 73.9206 102.567C75.9532 102.175 77.9568 101.636 79.9089 100.95C82.9356 104.603 86.4164 108.012 90.3106 111.1C92.6932 112.99 94.4165 113.653 94.8868 113.395C94.9755 113.543 95.0641 113.691 95.1537 113.839C91.0605 116.07 86.7095 117.793 82.2174 119.01C82.1676 118.847 82.1179 118.683 82.0681 118.52V118.518ZM79.206 113.627C78.5149 112.77 77.8474 111.901 77.2042 111.021C77.0441 112.078 76.8578 113.136 76.6452 114.193C77.5036 114.024 78.3566 113.836 79.206 113.627Z" fill="black"/>
<path d="M106.42 105.015C106.906 104.55 106.313 104.031 105.187 103.521C103.708 104.939 102.154 106.258 100.537 107.478C100.846 108.383 101.362 109.265 101.937 108.83C102.048 108.964 102.158 109.098 102.268 109.232C100.069 110.906 97.7555 112.404 95.352 113.727C95.2624 113.579 95.1729 113.432 95.0833 113.284C95.5537 113.027 95.8378 111.354 95.3339 108.435C94.4999 103.638 93.1702 99.0125 91.3818 94.6345C93.0164 93.3288 94.5533 91.8761 95.9689 90.2773C100.452 92.0549 105.222 93.3651 110.202 94.1291C113.25 94.5973 115.111 94.277 115.405 93.7825C115.556 93.8705 115.707 93.9585 115.858 94.0474C113.293 98.3329 110.231 102.111 106.791 105.382C106.667 105.26 106.543 105.137 106.419 105.016L106.42 105.015ZM101.483 102.013C100.447 101.577 99.428 101.118 98.4249 100.638C98.793 101.658 99.1377 102.692 99.4588 103.736C100.147 103.182 100.823 102.608 101.483 102.014V102.013Z" fill="black"/>
<path d="M106.172 66.2987C106.113 67.0409 107.444 67.4846 110.235 67.677C114.819 67.9773 119.403 68.2768 123.987 68.5771C123.553 72.8989 122.757 76.9539 121.644 80.743C118.47 82.31 115.271 83.4751 112.1 84.2754C113.061 84.6792 114.023 85.0829 114.983 85.4867C117.547 86.5719 118.986 86.6953 119.335 85.8242C119.498 85.8887 119.662 85.9522 119.825 86.0166C118.76 88.687 117.527 91.2049 116.143 93.5704C115.991 93.4833 115.839 93.3971 115.687 93.31C116.138 92.536 115.142 91.5043 112.691 90.1877C110.043 88.7559 107.394 87.3232 104.745 85.8914C102.293 84.573 100.949 84.191 100.64 84.7209C100.488 84.6338 100.336 84.5476 100.184 84.4605C101.699 81.869 102.952 79.0118 103.886 75.8868C106.421 75.1818 108.965 74.2055 111.485 72.9343C110.829 72.8172 110.172 72.7001 109.515 72.5831C106.765 72.1004 105.356 72.1975 105.209 72.8725C105.037 72.8372 104.865 72.8018 104.693 72.7664C105.145 70.7076 105.466 68.5444 105.644 66.2778C105.821 66.2842 105.996 66.2915 106.173 66.2978L106.172 66.2987Z" fill="black"/>
</svg>
